opsz8_wdth50.ufo
<glyph name="A" format="2">
	<unicode hex="0041"/>
	<advance width="1223"/>
	<outline>
		<contour>
			<point x="-251.2353515625" y="0" type="line"/>
			<point x="-240.2487792969" y="89.005859375" type="line"/>
			<point x="-60.9018554688" y="108.005859375" type="line"/>
			<point x="320.279296875" y="698" type="line"/>
			<point x="863.7644042969" y="1531" type="line"/>
			<point x="978.9630737305" y="1513" type="line"/>
			<point x="1006.9979858398" y="655" type="line"/>
			<point x="1035.3389892578" y="119.005859375" type="line"/>
			<point x="1210.6424560547" y="99.005859375" type="line"/>
			<point x="1200.9605712891" y="0" type="line"/>
			<point x="678.0116577148" y="0" type="line"/>
			<point x="688.6935424805" y="99.005859375" type="line"/>
			<point x="875.9970092773" y="119.005859375" type="line"/>
			<point x="848.7798461914" y="648" type="line"/>
			<point x="891" y="1166" type="line"/>
			<point x="886" y="1287" type="line"/>
			<point x="876" y="1287" type="line"/>
			<point x="799" y="1167" type="line"/>
			<point x="404.1483764648" y="651.8672485352" type="line"/>
			<point x="62.2369384766" y="108.005859375" type="line"/>
			<point x="255.1925048828" y="89.005859375" type="line"/>
			<point x="254.2059326172" y="0" type="line"/>
		</contour>
		<contour>
			<point x="231.2557983398" y="467.4295043945" type="line"/>
			<point x="278.1664428711" y="577.3071899414" type="line"/>
			<point x="467.0198974609" y="452.6143798828" type="line"/>
			<point x="442.9732666016" y="361.8590087891" type="line"/>
		</contour>
		<contour>
			<point x="467.0198974609" y="452.6143798828" type="line"/>
			<point x="972.6624755859" y="579.3071899414" type="line"/>
			<point x="965.5014648438" y="479.4295043945" type="line"/>
			<point x="442.9732666016" y="361.8590087891" type="line"/>
		</contour>
	</outline>
	<anchor name="bottom" x="523" y="0"/>
	<anchor name="ogonek" x="1098" y="0"/>
	<anchor name="top" x="954" y="1500"/>
	<anchor name="tonos" x="613" y="1500"/>
</glyph>
<glyph name="C" format="2">
	<unicode hex="0043"/>
	<advance width="1230"/>
	<outline>
		<contour>
			<point x="92.7876170557" y="865" type="qcurve" smooth="yes"/>
			<point x="191.7876170557" y="1239"/>
			<point x="683.5871776026" y="1586.52734375"/>
			<point x="967.1245921534" y="1539.1423339844" type="qcurve" smooth="yes"/>
			<point x="1056.3271068018" y="1523.7250976562"/>
			<point x="1174.8747710158" y="1474.5541381836"/>
			<point x="1210.7652739454" y="1457.1745605469" type="qcurve"/>
			<point x="1234.6653593947" y="1442.913269043" type="line"/>
			<point x="1260.0299223829" y="1442.3380126953" type="line"/>
			<point x="1204.5240630079" y="1054.9124755859" type="line"/>
			<point x="1104.5212553908" y="1054.9124755859" type="line"/>
			<point x="1132.4557036329" y="1365.3090820312" type="line"/>
			<point x="1124.5447539259" y="1360.0026245117"/>
			<point x="1002.6679839064" y="1397.6246948242"/>
			<point x="964.8656767775" y="1404.9616088867" type="qcurve" smooth="yes"/>
			<point x="696.3426665236" y="1454.5562744141"/>
			<point x="338.7844432276" y="1145"/>
			<point x="267.7844432276" y="837" type="qcurve" smooth="yes"/>
			<point x="197.0739940088" y="533"/>
			<point x="345.7427519728" y="120.7811279297"/>
			<point x="552.7179716993" y="83.6907958984" type="qcurve" smooth="yes"/>
			<point x="748.0688628126" y="50.6361083984"/>
			<point x="1000.4613231104" y="185.3858032227"/>
			<point x="1100.7484324854" y="299.0808105469" type="qcurve"/>
			<point x="1132.8215526026" y="274.0808105469" type="line"/>
			<point x="1155.8657420557" y="204.8575439453" type="line"/>
			<point x="1061.5226591993" y="63.8930053711"/>
			<point x="735.211196797" y="-76.2779541016"/>
			<point x="495.9095652979" y="-31.1424560547" type="qcurve" smooth="yes"/>
			<point x="242.1037181299" y="15.1220703125"/>
			<point x="-12.8639942724" y="464"/>
		</contour>
	</outline>
	<anchor name="bottom" x="596" y="0"/>
	<anchor name="top" x="906" y="1500"/>
</glyph>
<glyph name="F" format="2">
	<unicode hex="0046"/>
	<advance width="1070"/>
	<outline>
		<contour>
			<point x="-60.4833984375" y="0" type="line"/>
			<point x="-54.0622558594" y="98.005859375" type="line"/>
			<point x="135.4150390625" y="118.005859375" type="line"/>
			<point x="269.9938964844" y="796" type="line"/>
			<point x="374.5727539062" y="1365.994140625" type="line"/>
			<point x="168.5302734375" y="1387.994140625" type="line"/>
			<point x="180.6036376953" y="1500" type="line"/>
			<point x="1095.9761962891" y="1500" type="line"/>
			<point x="1063.1890258789" y="1166.811340332" type="line"/>
			<point x="960.1859741211" y="1166.811340332" type="line"/>
			<point x="941.5370483398" y="1395.8628540039" type="line"/>
			<point x="568.8643188477" y="1395.8628540039" type="line"/>
			<point x="533.8643188477" y="1375.8628540039" type="line"/>
			<point x="418.3004150391" y="801" type="line"/>
			<point x="293.7215576172" y="118.005859375" type="line"/>
			<point x="520.5465087891" y="98.005859375" type="line"/>
			<point x="513.3862304688" y="0" type="line"/>
		</contour>
		<contour>
			<point x="332" y="751" type="line"/>
			<point x="351" y="851" type="line"/>
			<point x="718.1031494141" y="813.7416381836" type="line"/>
			<point x="793.0216064453" y="949.3339233398" type="line"/>
			<point x="873.0246582031" y="949.3339233398" type="line"/>
			<point x="804.4803466797" y="530.317199707" type="line"/>
			<point x="721.4772949219" y="530.317199707" type="line"/>
			<point x="716.6237182617" y="697.9094848633" type="line"/>
		</contour>
	</outline>
	<anchor name="bottom" x="578" y="0"/>
	<anchor name="top" x="622" y="1500"/>
</glyph>
<glyph name="G" format="2">
	<unicode hex="0047"/>
	<advance width="1353"/>
	<outline>
		<contour>
			<point x="89.461730957" y="856" type="qcurve" smooth="yes"/>
			<point x="199.461730957" y="1250"/>
			<point x="689.9016113281" y="1545.0140991211"/>
			<point x="950.7548217773" y="1539.4281005859" type="qcurve" smooth="yes"/>
			<point x="1032.6850585938" y="1534.5012207031"/>
			<point x="1150.8988647461" y="1492.9265136719"/>
			<point x="1196.5099487305" y="1469.5711669922" type="qcurve" smooth="yes"/>
			<point x="1231.6721828587" y="1450.5712890625" type="line"/>
			<point x="1282.5233791477" y="1424" type="line"/>
			<point x="1218.3669460422" y="1068.4439086914" type="line"/>
			<point x="1124.6975124485" y="1068.4439086914" type="line"/>
			<point x="1149.8233669407" y="1281.0361938477" type="line"/>
			<point x="1131.0364990234" y="1324.9630737305"/>
			<point x="1034.4155273438" y="1402.244934082"/>
			<point x="949.5586547852" y="1417.4642944336" type="qcurve" smooth="yes"/>
			<point x="744.5095214844" y="1453.5432739258"/>
			<point x="352.9219970703" y="1173"/>
			<point x="263.4585571289" y="817" type="qcurve" smooth="yes"/>
			<point x="197.9513549805" y="559"/>
			<point x="324.1848144531" y="122.5785522461"/>
			<point x="507.5047607422" y="84.4232788086" type="qcurve" smooth="yes"/>
			<point x="648.2338867188" y="50.728515625"/>
			<point x="886.6116943359" y="110.1371459961"/>
			<point x="979.755859375" y="154.1371459961" type="qcurve"/>
			<point x="1064.4941433079" y="578.994140625" type="line"/>
			<point x="878.464114011" y="601.4340820312" type="line"/>
			<point x="893.6988552219" y="712" type="line"/>
			<point x="1334.0768459446" y="712" type="line"/>
			<point x="1314.320376218" y="600.3342285156" type="line"/>
			<point x="1204.9606350071" y="578.994140625" type="line"/>
			<point x="1124.3817775852" y="162" type="line"/>
			<point x="1071.8033447266" y="129" type="line"/>
			<point x="982.6439208984" y="57.3903198242"/>
			<point x="678.5820922852" y="-65.7138671875"/>
			<point x="482.064453125" y="-29.7138671875" type="qcurve" smooth="yes"/>
			<point x="253.408996582" y="8.3108520508"/>
			<point x="-21.538269043" y="457"/>
		</contour>
	</outline>
	<anchor name="bottom" x="667" y="0"/>
	<anchor name="top" x="907" y="1492"/>
</glyph>
<glyph name="H" format="2">
	<unicode hex="0048"/>
	<advance width="1579"/>
	<outline>
		<contour>
			<point x="-56.3702392578" y="0" type="line"/>
			<point x="-47.9490966797" y="99.005859375" type="line"/>
			<point x="139.7890625" y="119.005859375" type="line"/>
			<point x="274.3679199219" y="796" type="line"/>
			<point x="378.9467773438" y="1365.994140625" type="line"/>
			<point x="177.2956542969" y="1387.994140625" type="line"/>
			<point x="186.8472900391" y="1500" type="line"/>
			<point x="733.6949462891" y="1500" type="line"/>
			<point x="711.5346679688" y="1388.994140625" type="line"/>
			<point x="540.5791015625" y="1365.994140625" type="line"/>
			<point x="427.3647460938" y="767" type="line"/>
			<point x="307.7858886719" y="119.005859375" type="line"/>
			<point x="489.6544189453" y="99.005859375" type="line"/>
			<point x="478.8419189453" y="0" type="line"/>
		</contour>
		<contour>
			<point x="346" y="738" type="line"/>
			<point x="367" y="855" type="line"/>
			<point x="822.4846801758" y="832.0032958984" type="line"/>
			<point x="1230.9566650391" y="841.0032958984" type="line"/>
			<point x="1210.7377929688" y="724.8217163086" type="line"/>
			<point x="799.5755004883" y="731.8217163086" type="line"/>
		</contour>
		<contour>
			<point x="842.1645507812" y="0" type="line"/>
			<point x="853.5856933594" y="99.005859375" type="line"/>
			<point x="1028.3238525391" y="119.005859375" type="line"/>
			<point x="1153.9027099609" y="773" type="line"/>
			<point x="1261.4815673828" y="1364.994140625" type="line"/>
			<point x="1085.8304443359" y="1387.994140625" type="line"/>
			<point x="1095.3820800781" y="1500" type="line"/>
			<point x="1630.5634765625" y="1500" type="line"/>
			<point x="1608.4031982422" y="1387.994140625" type="line"/>
			<point x="1428.7084960938" y="1364.994140625" type="line"/>
			<point x="1313.1296386719" y="755" type="line"/>
			<point x="1195.55078125" y="119.005859375" type="line"/>
			<point x="1386.1584472656" y="99.005859375" type="line"/>
			<point x="1375.3459472656" y="0" type="line"/>
		</contour>
	</outline>
	<anchor name="bottom" x="607" y="0"/>
	<anchor name="center" x="820" y="1079"/>
	<anchor name="top" x="950" y="1500"/>
	<anchor name="tonos" x="81" y="1500"/>
	<anchor name="cy_descender" x="1399" y="100"/>
</glyph>
<glyph name="J" format="2">
	<unicode hex="004A"/>
	<advance width="832"/>
	<outline>
		<contour>
			<point x="-115.5622558594" y="-233" type="qcurve"/>
			<point x="-80.5178222656" y="-105.7339477539" type="line"/>
			<point x="-55.4382324219" y="-115.7339477539"/>
			<point x="11.3308105469" y="-119.7339477539"/>
			<point x="41.3282470703" y="-119.7339477539" type="qcurve" smooth="yes"/>
			<point x="133.8455810547" y="-119.7339477539"/>
			<point x="232.043762207" y="-19.9078369141"/>
			<point x="257.8698730469" y="113.2660522461" type="qcurve" smooth="yes"/>
			<point x="381.8254394531" y="754" type="line"/>
			<point x="492.1843261719" y="1367.994140625" type="line"/>
			<point x="282.5590820312" y="1390.994140625" type="line"/>
			<point x="296.3918457031" y="1500" type="line"/>
			<point x="870.6373901367" y="1500" type="line"/>
			<point x="845.8046264648" y="1390.994140625" type="line"/>
			<point x="656.8258666992" y="1367.994140625" type="line"/>
			<point x="532.2470092773" y="754" type="line"/>
			<point x="432.2470092773" y="199" type="line" smooth="yes"/>
			<point x="388.2470092773" y="-51"/>
			<point x="186.8212890625" y="-259"/>
			<point x="64.9708251953" y="-259" type="qcurve" smooth="yes"/>
			<point x="-10.8294067383" y="-259"/>
			<point x="-83.5648193359" y="-244"/>
		</contour>
	</outline>
	<anchor name="bottom" x="376" y="-208"/>
	<anchor name="top" x="533" y="1500"/>
	<anchor name="_liga" x="0" y="0"/>
</glyph>
<glyph name="L" format="2">
	<unicode hex="004C"/>
	<advance width="1132"/>
	<outline>
		<contour>
			<point x="-52.4643554688" y="0" type="line"/>
			<point x="-42.3909912109" y="95.005859375" type="line"/>
			<point x="137.4340820312" y="115.005859375" type="line"/>
			<point x="278.0129394531" y="796" type="line"/>
			<point x="378.591796875" y="1375.994140625" type="line"/>
			<point x="180.33203125" y="1388.994140625" type="line"/>
			<point x="189.14453125" y="1500" type="line"/>
			<point x="764.9987182617" y="1500" type="line"/>
			<point x="746.1862182617" y="1388.994140625" type="line"/>
			<point x="540.0133666992" y="1375.994140625" type="line"/>
			<point x="428.4345092773" y="754" type="line"/>
			<point x="305.1750488281" y="125.1376953125" type="line"/>
			<point x="331.1750488281" y="98.1376953125" type="line"/>
			<point x="829.1138916016" y="98.1376953125" type="line"/>
			<point x="960.7344970703" y="335.8621826172" type="line"/>
			<point x="1051.7375488281" y="335.8621826172" type="line"/>
			<point x="933.3764038086" y="0" type="line"/>
		</contour>
	</outline>
	<anchor name="bottom" x="535" y="0"/>
	<anchor name="centerright" x="755" y="750"/>
	<anchor name="top" x="878" y="1500"/>
	<anchor name="topright" x="804" y="1001"/>
	<anchor name="center" x="397" y="750"/>
	<anchor name="liga" x="1104" y="0"/>
</glyph>
<glyph name="M" format="2">
	<unicode hex="004D"/>
	<advance width="1893"/>
	<outline>
		<contour>
			<point x="-56.8884277344" y="0" type="line"/>
			<point x="-51.0759277344" y="106.005859375" type="line"/>
			<point x="150.9665527344" y="141.005859375" type="line"/>
			<point x="271.5454101562" y="754" type="line"/>
			<point x="388.904296875" y="1349.994140625" type="line"/>
			<point x="190.6444091797" y="1383.994140625" type="line"/>
			<point x="209.6768798828" y="1500" type="line"/>
			<point x="566.4854125977" y="1500" type="line"/>
			<point x="740.1624145508" y="675.7119140625" type="line"/>
			<point x="815" y="327" type="line"/>
			<point x="831" y="213" type="line"/>
			<point x="841" y="213" type="line"/>
			<point x="900" y="327" type="line"/>
			<point x="1169.9631958008" y="730.1599121094" type="line"/>
			<point x="1617.785949707" y="1500" type="line"/>
			<point x="1939.5485839844" y="1500" type="line"/>
			<point x="1915.4291992188" y="1386.994140625" type="line"/>
			<point x="1743.1693115234" y="1362.994140625" type="line"/>
			<point x="1619.8104248047" y="753" type="line"/>
			<point x="1508.2315673828" y="126.005859375" type="line"/>
			<point x="1699.1000976562" y="106.005859375" type="line"/>
			<point x="1692.2875976562" y="0" type="line"/>
			<point x="1146.8246459961" y="0" type="line"/>
			<point x="1151.6371459961" y="106.005859375" type="line"/>
			<point x="1337.8099975586" y="126.005859375" type="line"/>
			<point x="1469.3888549805" y="754.8849487305" type="line"/>
			<point x="1580" y="1244" type="line"/>
			<point x="1606" y="1363" type="line"/>
			<point x="1597" y="1365" type="line"/>
			<point x="1539" y="1258" type="line"/>
			<point x="1237.8801879883" y="625.1818847656" type="line"/>
			<point x="828.1411132812" y="-8" type="line"/>
			<point x="785.0900268555" y="-8" type="line"/>
			<point x="587.4000244141" y="568.4165039062" type="line"/>
			<point x="499" y="1249" type="line"/>
			<point x="485" y="1357" type="line"/>
			<point x="474" y="1355" type="line"/>
			<point x="456" y="1235" type="line"/>
			<point x="402.3336791992" y="754" type="line"/>
			<point x="285.7548217773" y="141.005859375" type="line"/>
			<point x="463.666809082" y="106.005859375" type="line"/>
			<point x="455.2456665039" y="0" type="line"/>
		</contour>
	</outline>
	<anchor name="bottom" x="768" y="0"/>
	<anchor name="top" x="1048" y="1500"/>
</glyph>
<glyph name="N" format="2">
	<unicode hex="004E"/>
	<advance width="1398"/>
	<outline>
		<contour>
			<point x="-60.2225341797" y="0" type="line"/>
			<point x="-49.4100341797" y="108.005859375" type="line"/>
			<point x="147.4150390625" y="115.005859375" type="line"/>
			<point x="269.9938964844" y="754" type="line"/>
			<point x="388.5727539062" y="1363.994140625" type="line"/>
			<point x="186.7911376953" y="1384.994140625" type="line"/>
			<point x="216.6036376953" y="1500" type="line"/>
			<point x="564.7453613281" y="1500" type="line"/>
			<point x="803.1342163086" y="730.1055297852" type="line"/>
			<point x="928.9522705078" y="382.778137207" type="line"/>
			<point x="961.3193969727" y="273.6099853516" type="line"/>
			<point x="973.3193969727" y="276.6099853516" type="line"/>
			<point x="989.4344482422" y="399.494934082" type="line"/>
			<point x="1062.2443237305" y="773" type="line"/>
			<point x="1178.8231811523" y="1363.994140625" type="line"/>
			<point x="979.3460083008" y="1388.994140625" type="line"/>
			<point x="988.9411010742" y="1500" type="line"/>
			<point x="1502.860168457" y="1500" type="line"/>
			<point x="1494.2650756836" y="1387.994140625" type="line"/>
			<point x="1295.7008666992" y="1362.994140625" type="line"/>
			<point x="1173.0512084961" y="754" type="line"/>
			<point x="1024.1220092773" y="-4" type="line"/>
			<point x="908.901550293" y="-4" type="line"/>
			<point x="666.3887939453" y="677.4968261719" type="line"/>
			<point x="517.2786865234" y="1177.7575073242" type="line"/>
			<point x="482.8938598633" y="1281.4876098633" type="line"/>
			<point x="470.8938598633" y="1277.4876098633" type="line"/>
			<point x="457.8673095703" y="1161.6026611328" type="line"/>
			<point x="383.8715820312" y="754" type="line"/>
			<point x="264.2927246094" y="118.005859375" type="line"/>
			<point x="459.4221191406" y="105.005859375" type="line"/>
			<point x="445.6096191406" y="0" type="line"/>
		</contour>
	</outline>
	<anchor name="bottom" x="640" y="0"/>
	<anchor name="top" x="884" y="1500"/>
	<anchor name="engtail" x="1041" y="0"/>
	<anchor name="liga" x="1432" y="0"/>
</glyph>
<glyph name="O" format="2">
	<unicode hex="004F"/>
	<advance width="1533"/>
	<outline>
		<contour>
			<point x="107.1632727371" y="889" type="qcurve" smooth="yes"/>
			<point x="191.7385290847" y="1196"/>
			<point x="676.8725012527" y="1590.336730957"/>
			<point x="985.2376745925" y="1518.4281005859" type="qcurve" smooth="yes"/>
			<point x="1265.2307776199" y="1451.0872192383"/>
			<point x="1506.9566687331" y="1002"/>
			<point x="1426.9212073074" y="675" type="qcurve" smooth="yes"/>
			<point x="1338.7706946121" y="315"/>
			<point x="837.6333202699" y="-92.4127892685"/>
			<point x="533.7733191238" y="-29.7138671875" type="qcurve" smooth="yes"/>
			<point x="246.847107256" y="30.6662762653"/>
			<point x="4.5880163894" y="516"/>
		</contour>
		<contour>
			<point x="276.9450313634" y="826" type="qcurve" smooth="yes"/>
			<point x="194.2348262852" y="510.3585205078"/>
			<point x="366.9018795079" y="129.2314453125"/>
			<point x="567.5315181798" y="83.1627197266" type="qcurve" smooth="yes"/>
			<point x="787.0613643712" y="34.5396728516"/>
			<point x="1172.7212154454" y="372.9305419922"/>
			<point x="1249.4350826329" y="706" type="qcurve" smooth="yes"/>
			<point x="1318.5776607579" y="1004.6414794922"/>
			<point x="1129.5819332188" y="1347.3263549805"/>
			<point x="930.2240840977" y="1394.0726318359" type="qcurve" smooth="yes"/>
			<point x="709.7829219884" y="1446.6703491211"/>
			<point x="356.4010250157" y="1135.0694580078"/>
		</contour>
	</outline>
	<anchor name="bottom" x="612" y="0"/>
	<anchor name="center" x="765" y="756"/>
	<anchor name="ogonek" x="844" y="0"/>
	<anchor name="top" x="906" y="1500"/>
	<anchor name="topright" x="1044" y="1500"/>
	<anchor name="tonos" x="230" y="1500"/>
	<anchor name="_yu_dash" x="174" y="795"/>
</glyph>
<glyph name="P" format="2">
	<unicode hex="0050"/>
	<advance width="1218"/>
	<outline>
		<contour>
			<point x="-56.4738769531" y="0" type="line"/>
			<point x="-47.0014648438" y="100.005859375" type="line"/>
			<point x="135.0844726562" y="112.005859375" type="line"/>
			<point x="256" y="754" type="line"/>
			<point x="380.7023925781" y="1366.994140625" type="line"/>
			<point x="173.6599121094" y="1384.994140625" type="line"/>
			<point x="182.8740234375" y="1500" type="line"/>
			<point x="777.6909179688" y="1500" type="line" smooth="yes"/>
			<point x="976.8865356445" y="1500"/>
			<point x="1206.2265625" y="1236"/>
			<point x="1174.1115112305" y="1026" type="qcurve" smooth="yes"/>
			<point x="1138.9964599609" y="799"/>
			<point x="797.7616577148" y="614.080078125"/>
			<point x="595.3558349609" y="614.080078125" type="qcurve" smooth="yes"/>
			<point x="488.244140625" y="614.080078125"/>
			<point x="326.2614135742" y="633.241027832"/>
			<point x="317" y="628" type="qcurve"/>
			<point x="337" y="733" type="line"/>
			<point x="379.3471679688" y="731"/>
			<point x="478.9466552734" y="719"/>
			<point x="579.5384521484" y="719" type="qcurve" smooth="yes"/>
			<point x="751.5756835938" y="719"/>
			<point x="972.0502929688" y="893.8656005859"/>
			<point x="996.0502929688" y="1057.8656005859" type="qcurve" smooth="yes"/>
			<point x="1016.0502929688" y="1200.8656005859"/>
			<point x="881.1597290039" y="1393.8184204102"/>
			<point x="710.6449584961" y="1393.8184204102" type="qcurve" smooth="yes"/>
			<point x="572.0634155273" y="1393.8184204102" type="line"/>
			<point x="536.18359375" y="1362.1071777344" type="line"/>
			<point x="419" y="764" type="line"/>
			<point x="305.3909912109" y="116.005859375" type="line"/>
			<point x="502.6072998047" y="97.005859375" type="line"/>
			<point x="493.1348876953" y="0" type="line"/>
		</contour>
	</outline>
	<anchor name="bottom" x="634" y="0"/>
	<anchor name="top" x="634" y="1500"/>
</glyph>
<glyph name="Q" format="2">
	<unicode hex="0051"/>
	<advance width="1526"/>
	<outline>
		<contour>
			<point x="92.9241511063" y="881" type="qcurve" smooth="yes"/>
			<point x="188.4994074539" y="1225"/>
			<point x="676.6513671875" y="1596.9206542969"/>
			<point x="960.7129084305" y="1540.4281005859" type="qcurve" smooth="yes"/>
			<point x="1232.5667724609" y="1487.0872192383"/>
			<point x="1501.3691584305" y="1015"/>
			<point x="1408.6820856766" y="679" type="qcurve" smooth="yes"/>
			<point x="1314.9172363281" y="336"/>
			<point x="816.2224299149" y="-62.6295776367"/>
			<point x="537.1088434891" y="-24.1424560547" type="qcurve" smooth="yes"/>
			<point x="252.1878229813" y="15.0801391602"/>
			<point x="-0.6511052414" y="539"/>
		</contour>
		<contour>
			<point x="264.7350031571" y="830" type="qcurve" smooth="yes"/>
			<point x="204.0962092117" y="582.5727539062"/>
			<point x="359.6112060547" y="151.2285766602"/>
			<point x="549.8151245117" y="109.7341308594" type="qcurve" smooth="yes"/>
			<point x="742.3449707031" y="68.1110839844"/>
			<point x="1161.0460383133" y="430.001953125"/>
			<point x="1233.2250544266" y="708" type="qcurve" smooth="yes"/>
			<point x="1311.8327814774" y="1012.5700683594"/>
			<point x="1098.6605402664" y="1381.3263549805"/>
			<point x="902.7284113602" y="1415.0726318359" type="qcurve" smooth="yes"/>
			<point x="680.2872492508" y="1452.6703491211"/>
			<point x="342.2346369461" y="1144.9266357422"/>
		</contour>
		<contour>
			<point x="346.0902709961" y="-65.51171875" type="qcurve"/>
			<point x="402.8682861328" y="-89.3332519531" type="line"/>
			<point x="993.2585449219" y="-307.7046508789" type="line" smooth="yes"/>
			<point x="1053.3413696289" y="-323.7379150391"/>
			<point x="1169.3295898438" y="-307.8197021484"/>
			<point x="1228.3532714844" y="-217.7885131836" type="qcurve"/>
			<point x="1340.3952026367" y="-273.7465820312" type="line"/>
			<point x="1283.2529907227" y="-407.5793457031"/>
			<point x="1078.7109985352" y="-526.4737548828"/>
			<point x="993.9765625" y="-524.5178833008" type="qcurve"/>
			<point x="365.4535522461" y="-267.2808227539" type="line"/>
			<point x="310.1728515625" y="-245.9216918945"/>
			<point x="193.6264648438" y="-289.2485961914"/>
			<point x="140.6145629883" y="-320.8228149414" type="qcurve"/>
			<point x="65.6338500977" y="-240.5087280273" type="line"/>
			<point x="94.6406860352" y="-156.9310302734"/>
			<point x="276.4299926758" y="-50.4697875977"/>
		</contour>
		<contour>
			<point x="280.9385375977" y="-88.1102905273" type="line"/>
			<point x="322.517578125" y="-67.7013549805"/>
			<point x="416.8695068359" y="56.3838500977"/>
			<point x="477.1599121094" y="134.4301757812" type="qcurve" smooth="yes"/>
			<point x="486.3061523438" y="148.2839355469"/>
			<point x="494.3792724609" y="154.3086547852"/>
			<point x="507.1351928711" y="169.3086547852" type="qcurve"/>
			<point x="517.9889526367" y="161.4796142578"/>
			<point x="584.117980957" y="119.1373291016"/>
			<point x="590.9717407227" y="103.9910888672" type="qcurve"/>
			<point x="578.7523803711" y="87.91796875"/>
			<point x="562.9964599609" y="78.600769043"/>
			<point x="554.3867797852" y="64.8201293945" type="qcurve" smooth="yes"/>
			<point x="500.6641235352" y="2.9265136719"/>
			<point x="410.140625" y="-108.9774169922"/>
			<point x="374.130065918" y="-121.0244750977" type="qcurve"/>
		</contour>
	</outline>
	<anchor name="bottom" x="832" y="0"/>
	<anchor name="top" x="832" y="1500"/>
</glyph>
<glyph name="T" format="2">
	<unicode hex="0054"/>
	<advance width="1182"/>
	<outline>
		<contour>
			<point x="89.8897094727" y="1120.6923828125" type="line"/>
			<point x="162.6494140625" y="1500" type="line"/>
			<point x="1279.5291748047" y="1500" type="line"/>
			<point x="1216.7694702148" y="1120.6923828125" type="line"/>
			<point x="1116.766418457" y="1120.6923828125" type="line"/>
			<point x="1144.0892944336" y="1405.6889648438" type="line"/>
			<point x="804.235534668" y="1405.6889648438" type="line"/>
			<point x="782.235534668" y="1385.6889648438" type="line"/>
			<point x="659.6716308594" y="754" type="line"/>
			<point x="538.0927734375" y="115.005859375" type="line"/>
			<point x="751.4830322266" y="92.005859375" type="line"/>
			<point x="742.9313964844" y="0" type="line"/>
			<point x="158.9058837891" y="0" type="line"/>
			<point x="163.4575195312" y="92.005859375" type="line"/>
			<point x="377.3260498047" y="115.005859375" type="line"/>
			<point x="506.9049072266" y="754" type="line"/>
			<point x="626.4688110352" y="1385.6889648438" type="line"/>
			<point x="622.4688110352" y="1405.6889648438" type="line"/>
			<point x="265.2171020508" y="1405.6889648438" type="line"/>
			<point x="189.8927612305" y="1120.6923828125" type="line"/>
		</contour>
	</outline>
	<anchor name="bottom" x="451" y="0"/>
	<anchor name="center" x="584" y="750"/>
	<anchor name="top" x="732" y="1500"/>
	<anchor name="cy_descender" x="755" y="100"/>
</glyph>
<glyph name="U" format="2">
	<unicode hex="0055"/>
	<advance width="1458"/>
	<outline>
		<contour>
			<point x="150.888671875" y="1390.994140625" type="line"/>
			<point x="163.1820068359" y="1500" type="line"/>
			<point x="715.6227749911" y="1500" type="line"/>
			<point x="703.3294400302" y="1390.994140625" type="line"/>
			<point x="497.6516723633" y="1365.994140625" type="line"/>
			<point x="386.2927856445" y="801" type="line" smooth="yes"/>
			<point x="339.7738647461" y="563.131652832"/>
			<point x="311.14453125" y="370.2738647461"/>
			<point x="317.71414462" y="286.7966308594" type="qcurve" smooth="yes"/>
			<point x="332.4603271484" y="230.4544677734"/>
			<point x="460.9490079013" y="104.1139526367"/>
			<point x="581.3207120029" y="104.1139526367" type="qcurve" smooth="yes"/>
			<point x="775.5798672763" y="104.1139526367"/>
			<point x="988.9783047763" y="287.1586303711"/>
			<point x="1026.7026089755" y="474.3510742188" type="qcurve" smooth="yes"/>
			<point x="1092.9573086825" y="801" type="line"/>
			<point x="1193.3161954013" y="1365.994140625" type="line"/>
			<point x="1007.9259366122" y="1390.994140625" type="line"/>
			<point x="1019.6993741122" y="1500" type="line"/>
			<point x="1530.9617032138" y="1500" type="line"/>
			<point x="1518.6683682529" y="1390.994140625" type="line"/>
			<point x="1330.7128018466" y="1365.994140625" type="line"/>
			<point x="1219.8340176669" y="801" type="line"/>
			<point x="1162.8340176669" y="480" type="line" smooth="yes"/>
			<point x="1119.9490689365" y="237.9818725586"/>
			<point x="832.8464078036" y="-6.71484375"/>
			<point x="588.8252286044" y="-6.71484375" type="qcurve" smooth="yes"/>
			<point x="395.3282193271" y="-6.71484375"/>
			<point x="161.4967041016" y="157"/>
			<point x="146.7505215732" y="301" type="qcurve" smooth="yes"/>
			<point x="140.1809082031" y="371"/>
			<point x="174.1809082031" y="585"/>
			<point x="218.1809082031" y="801" type="qcurve" smooth="yes"/>
			<point x="335.5397949219" y="1365.994140625" type="line"/>
		</contour>
	</outline>
	<anchor name="bottom" x="588" y="0"/>
	<anchor name="ogonek" x="810" y="0"/>
	<anchor name="top" x="908" y="1500"/>
	<anchor name="topright" x="1561" y="1500"/>
</glyph>
<glyph name="V" format="2">
	<unicode hex="0056"/>
	<advance width="1171"/>
	<outline>
		<contour>
			<point x="23.4017333984" y="1383.4543457031" type="line"/>
			<point x="38.7410888672" y="1500" type="line"/>
			<point x="564.5962524414" y="1500" type="line"/>
			<point x="549.916809082" y="1386.5339355469" type="line"/>
			<point x="368.0034790039" y="1363.994140625" type="line"/>
			<point x="423.9531860352" y="794.4481201172" type="line"/>
			<point x="455.5103149414" y="382.6915283203" type="line"/>
			<point x="465.8421020508" y="270.563659668" type="line"/>
			<point x="483.8421020508" y="270.563659668" type="line"/>
			<point x="543.9791870117" y="381.2406616211" type="line"/>
			<point x="786.3120117188" y="834.4905395508" type="line"/>
			<point x="1076.5323486328" y="1369.994140625" type="line"/>
			<point x="860.091796875" y="1385.3139648438" type="line"/>
			<point x="880.6843261719" y="1500" type="line"/>
			<point x="1402.6397094727" y="1500" type="line"/>
			<point x="1374.3872680664" y="1382.234375" type="line"/>
			<point x="1194.8424682617" y="1364.994140625" type="line"/>
			<point x="854.095703125" y="758.6623535156" type="line"/>
			<point x="428.0676879883" y="-12.5712890625" type="line"/>
			<point x="340.8952636719" y="-12.5712890625" type="line"/>
			<point x="275.2333374023" y="708.4819335938" type="line"/>
			<point x="212.4893798828" y="1365.994140625" type="line"/>
		</contour>
	</outline>
	<anchor name="bottom" x="373" y="0"/>
	<anchor name="top" x="743" y="1500"/>
</glyph>
<glyph name="W" format="2">
	<unicode hex="0057"/>
	<advance width="1631"/>
	<outline>
		<contour>
			<point x="48.7099609375" y="1388.994140625" type="line"/>
			<point x="54.6119384766" y="1500" type="line"/>
			<point x="513.0987548828" y="1500" type="line"/>
			<point x="507.1967773438" y="1388.994140625" type="line"/>
			<point x="360.7628173828" y="1365.994140625" type="line"/>
			<point x="366.6825561523" y="771.853515625" type="line"/>
			<point x="410" y="400" type="line"/>
			<point x="410" y="271" type="line"/>
			<point x="427" y="271" type="line"/>
			<point x="497" y="400" type="line"/>
			<point x="633.1201782227" y="729.5880126953" type="line"/>
			<point x="913" y="1121" type="line"/>
			<point x="836.0344848633" y="1369.994140625" type="line"/>
			<point x="701.9483032227" y="1389.994140625" type="line"/>
			<point x="704.5894165039" y="1500" type="line"/>
			<point x="1131.5458374023" y="1500" type="line"/>
			<point x="1129.4264526367" y="1388.994140625" type="line"/>
			<point x="967.035949707" y="1369.994140625" type="line"/>
			<point x="960.012878418" y="824.2084960938" type="line"/>
			<point x="1094" y="400" type="line"/>
			<point x="1094" y="271" type="line"/>
			<point x="1111" y="271" type="line"/>
			<point x="1177" y="400" type="line"/>
			<point x="1252.3717651367" y="795.2249755859" type="line"/>
			<point x="1562.7855834961" y="1361.994140625" type="line"/>
			<point x="1368.9170532227" y="1389.994140625" type="line"/>
			<point x="1386.9495239258" y="1500" type="line"/>
			<point x="1867.219543457" y="1500" type="line"/>
			<point x="1972" y="1385" type="line"/>
			<point x="1681.753112793" y="1361.994140625" type="line"/>
			<point x="1327.2835083008" y="726.0904541016" type="line"/>
			<point x="897.5681152344" y="-12.5712890625" type="line"/>
			<point x="837.1576538086" y="-12.5712890625" type="line"/>
			<point x="923" y="805" type="line"/>
			<point x="921" y="934" type="line"/>
			<point x="911" y="934" type="line"/>
			<point x="844" y="805" type="line"/>
			<point x="292.4605102539" y="-12.5712890625" type="line"/>
			<point x="233.5617675781" y="-12.5712890625" type="line"/>
			<point x="218.2076416016" y="746.4509277344" type="line"/>
			<point x="192.0134277344" y="1365.994140625" type="line"/>
		</contour>
	</outline>
	<anchor name="bottom" x="691" y="0"/>
	<anchor name="top" x="981" y="1500"/>
</glyph>
<glyph name="X" format="2">
	<unicode hex="0058"/>
	<advance width="1055"/>
	<outline>
		<contour>
			<point x="-202.8250732422" y="0" type="line"/>
			<point x="-180.0125732422" y="101.005859375" type="line"/>
			<point x="1.1605224609" y="121.005859375" type="line"/>
			<point x="513" y="764" type="line"/>
			<point x="247.7578125" y="1363.994140625" type="line"/>
			<point x="83.1064453125" y="1386.994140625" type="line"/>
			<point x="81.1389160156" y="1500" type="line"/>
			<point x="592.3150634766" y="1500" type="line"/>
			<point x="594.2825927734" y="1386.994140625" type="line"/>
			<point x="424.4138183594" y="1363.994140625" type="line"/>
			<point x="581" y="1027" type="line"/>
			<point x="627" y="913" type="line"/>
			<point x="638" y="913" type="line"/>
			<point x="724" y="1027" type="line"/>
			<point x="925.6961669922" y="1357.994140625" type="line"/>
			<point x="765.21875" y="1386.994140625" type="line"/>
			<point x="797.2512207031" y="1500" type="line"/>
			<point x="1247.9145507812" y="1500" type="line"/>
			<point x="1222.8820800781" y="1386.994140625" type="line"/>
			<point x="1038.1003417969" y="1363.994140625" type="line"/>
			<point x="670" y="808" type="line"/>
			<point x="859.3447265625" y="117.005859375" type="line"/>
			<point x="1037.0830078125" y="96.005859375" type="line"/>
			<point x="1054.2705078125" y="0" type="line"/>
			<point x="538.6493530273" y="0" type="line"/>
			<point x="521.4618530273" y="96.005859375" type="line"/>
			<point x="683.5914916992" y="116.005859375" type="line"/>
			<point x="603" y="544" type="line"/>
			<point x="556" y="658" type="line"/>
			<point x="546" y="658" type="line"/>
			<point x="461" y="544" type="line"/>
			<point x="111.5646972656" y="122.005859375" type="line"/>
			<point x="299.0421142578" y="101.005859375" type="line"/>
			<point x="283.9066162109" y="0" type="line"/>
		</contour>
	</outline>
	<anchor name="bottom" x="453" y="0"/>
	<anchor name="top" x="723" y="1500"/>
	<anchor name="cy_descender" x="1125" y="100"/>
	<anchor name="center" x="591" y="791"/>
</glyph>
<glyph name="Y" format="2">
	<unicode hex="0059"/>
	<advance width="975"/>
	<outline>
		<contour>
			<point x="50.2169799805" y="0" type="line"/>
			<point x="68.0294799805" y="91.005859375" type="line"/>
			<point x="294.202331543" y="111.005859375" type="line"/>
			<point x="392.5865478516" y="597.2568969727" type="line"/>
			<point x="293.7963867188" y="965.2496337891" type="line"/>
			<point x="169.2690429688" y="1369.994140625" type="line"/>
			<point x="18.4437255859" y="1393.994140625" type="line"/>
			<point x="7.4761962891" y="1500" type="line"/>
			<point x="491.8548583984" y="1500" type="line"/>
			<point x="502.8223876953" y="1393.994140625" type="line"/>
			<point x="334.9536132812" y="1373.994140625" type="line"/>
			<point x="429.6854858398" y="1032.5798339844" type="line"/>
			<point x="509.0919189453" y="732.964050293" type="line"/>
			<point x="521.0919189453" y="732.964050293" type="line"/>
			<point x="709.6072998047" y="1066.7484130859" type="line"/>
			<point x="894.3289794922" y="1364.994140625" type="line"/>
			<point x="724.1560058594" y="1388.994140625" type="line"/>
			<point x="750.1884765625" y="1500" type="line"/>
			<point x="1196.3715820312" y="1500" type="line"/>
			<point x="1170.3391113281" y="1388.994140625" type="line"/>
			<point x="993.5137939453" y="1364.994140625" type="line"/>
			<point x="778.9318237305" y="1024.6243286133" type="line"/>
			<point x="545.4946899414" y="632.4287109375" type="line"/>
			<point x="444.5088500977" y="111.005859375" type="line"/>
			<point x="661.4208374023" y="91.005859375" type="line"/>
			<point x="646.6083374023" y="0" type="line"/>
		</contour>
	</outline>
	<anchor name="bottom" x="443" y="0"/>
	<anchor name="top" x="731" y="1500"/>
	<anchor name="tonos" x="-13" y="1500"/>
	<anchor name="center" x="553" y="579"/>
</glyph>
<glyph name="b" format="2">
	<unicode hex="0062"/>
	<advance width="980"/>
	<outline>
		<contour>
			<point x="28" y="310" type="qcurve" smooth="yes"/>
			<point x="113" y="644" type="line"/>
			<point x="298.3258056641" y="1424.2075195312" type="line"/>
			<point x="140.1868286133" y="1479.0707397461" type="line"/>
			<point x="163.7262573242" y="1539.0678100586" type="line"/>
			<point x="415.1557617188" y="1602.2045898438" type="line"/>
			<point x="484.1557617188" y="1538.2045898438" type="line"/>
			<point x="279.2905273438" y="631" type="line"/>
			<point x="180.1166992188" y="202.5754394531" type="line" smooth="yes"/>
			<point x="169.1166992188" y="156.4167480469"/>
			<point x="217.19140625" y="89.5754394531"/>
			<point x="284.2661132812" y="89.5754394531" type="qcurve" smooth="yes"/>
			<point x="476.0463867188" y="89.5754394531"/>
			<point x="772.4172363281" y="441.8735351562"/>
			<point x="771.2595214844" y="685.6809082031" type="qcurve" smooth="yes"/>
			<point x="768.1931152344" y="755.4731445312"/>
			<point x="699.7211914062" y="854.2023925781"/>
			<point x="610.4721679688" y="853.2023925781" type="qcurve" smooth="yes"/>
			<point x="517.6276855469" y="852.2023925781"/>
			<point x="338.3671875" y="729.05859375"/>
			<point x="217.3298339844" y="600.3923339844" type="qcurve"/>
			<point x="197.3461914062" y="696.1567382812" type="line"/>
			<point x="329.2172851562" y="860.3383789062"/>
			<point x="572.4323730469" y="1023.9995117188"/>
			<point x="687.3825683594" y="1023.9995117188" type="qcurve" smooth="yes"/>
			<point x="804.3586425781" y="1023.9995117188"/>
			<point x="955.2333984375" y="872.9995117188"/>
			<point x="959.8454589844" y="718.9995117188" type="qcurve" smooth="yes"/>
			<point x="968.0529785156" y="402.9995117188"/>
			<point x="526.7094726562" y="-30"/>
			<point x="240.3981933594" y="-30" type="qcurve" smooth="yes"/>
			<point x="100.5708007812" y="-30"/>
			<point x="-8" y="170"/>
		</contour>
	</outline>
	<anchor name="bottom" x="571" y="0"/>
	<anchor name="top" x="571" y="1533"/>
</glyph>
<glyph name="d" format="2">
	<unicode hex="0064"/>
	<advance width="991"/>
	<outline>
		<contour>
			<point x="-39.5" y="250.2379760742" type="qcurve" smooth="yes"/>
			<point x="-25.5" y="558.1901855469"/>
			<point x="387.6029052734" y="1011.8314208984"/>
			<point x="701.4406738281" y="1009.9994506836" type="qcurve" smooth="yes"/>
			<point x="776.9946289062" y="1009.9994506836" type="line"/>
			<point x="869.6119384766" y="1427.1669921875" type="line"/>
			<point x="728.3895874023" y="1480.1211547852" type="line"/>
			<point x="742.9290161133" y="1539.1182250977" type="line"/>
			<point x="1002.0280761719" y="1602.1640625" type="line"/>
			<point x="1064.0280761719" y="1534.1640625" type="line"/>
			<point x="817.1628417969" y="469" type="line"/>
			<point x="732.1024169922" y="139.9970703125" type="line"/>
			<point x="891.6127929688" y="141.0429077148" type="line"/>
			<point x="884.0733642578" y="45.0458374023" type="line"/>
			<point x="639.9401855469" y="-16" type="line"/>
			<point x="583.9401855469" y="86" type="line"/>
			<point x="584.9401855469" y="160" type="line"/>
			<point x="516.8344726562" y="95.9523925781"/>
			<point x="268.5040893555" y="-20"/>
			<point x="177.1087646484" y="-20" type="qcurve" smooth="yes"/>
			<point x="61.9545898438" y="-20"/>
			<point x="-45.5" y="126.5237426758"/>
		</contour>
		<contour>
			<point x="142.8500976562" y="306.270690918" type="qcurve" smooth="yes"/>
			<point x="137.8500976562" y="231.1924438477"/>
			<point x="207.0458374023" y="141.9243164062"/>
			<point x="286.1918945312" y="141.9243164062" type="qcurve" smooth="yes"/>
			<point x="379.3754882812" y="141.9243164062"/>
			<point x="598.4833984375" y="307.1926269531"/>
			<point x="647.9313964844" y="487.826171875" type="qcurve" smooth="yes"/>
			<point x="729.6923828125" y="806.2816772461" type="line"/>
			<point x="723.642578125" y="846.2816772461"/>
			<point x="667.5891113281" y="897.2816772461"/>
			<point x="605.0185546875" y="897.2816772461" type="qcurve" smooth="yes"/>
			<point x="401.4853515625" y="897.2816772461"/>
			<point x="154.8500976562" y="464.9987792969"/>
		</contour>
	</outline>
	<anchor name="bottom" x="604" y="0"/>
	<anchor name="center" x="876" y="1202"/>
	<anchor name="top" x="704" y="1534"/>
	<anchor name="topright" x="1076" y="1000"/>
	<anchor name="liga" x="1067" y="0"/>
</glyph>
<glyph name="e" format="2">
	<unicode hex="0065"/>
	<advance width="938"/>
	<outline>
		<contour>
			<point x="16.6101003962" y="532.2282714844" type="qcurve" smooth="yes"/>
			<point x="70.7393728572" y="768.3371582031"/>
			<point x="412.483818658" y="1029.0471191406"/>
			<point x="599.2465139705" y="1029.0471191406" type="qcurve" smooth="yes"/>
			<point x="760.1060720759" y="1029.0471191406"/>
			<point x="913.7575002986" y="887.3598632812"/>
			<point x="911.2234426814" y="792.4599609375" type="qcurve" smooth="yes"/>
			<point x="908.9769216853" y="749.8229370117"/>
			<point x="891.9817434627" y="656.1243286133"/>
			<point x="879.0425344783" y="628.1901855469" type="qcurve"/>
			<point x="884.8044363337" y="607.1901855469" type="line"/>
			<point x="855.9468313533" y="497.7116699219" type="line"/>
			<point x="837.1942678767" y="504.0532226562"/>
			<point x="669.1318289119" y="507.6574707031"/>
			<point x="612.8660208064" y="507.7116699219" type="qcurve" smooth="yes"/>
			<point x="125.9341360408" y="505.7116699219" type="line"/>
			<point x="147.0298391658" y="599.7141113281" type="line"/>
			<point x="699.7065969783" y="602.1901855469" type="line"/>
			<point x="719.4810720759" y="625.4118041992"/>
			<point x="741.1632620173" y="728.4260864258"/>
			<point x="740.3319631892" y="776.44140625" type="qcurve" smooth="yes"/>
			<point x="740.5202566462" y="836.1870117188"/>
			<point x="671.4215627986" y="906.7260742188"/>
			<point x="591.1776663142" y="906.7260742188" type="qcurve" smooth="yes"/>
			<point x="449.8698049861" y="906.7260742188"/>
			<point x="221.0653005916" y="616.6347045898"/>
			<point x="188.7917410212" y="487.1901855469" type="qcurve" smooth="yes"/>
			<point x="152.684990533" y="340.2487792969"/>
			<point x="226.8019338923" y="92.8149414062"/>
			<point x="367.0456472712" y="92.2150878906" type="qcurve" smooth="yes"/>
			<point x="508.2872854548" y="91.2648925781"/>
			<point x="668.6823660212" y="202.3576660156"/>
			<point x="747.7231375056" y="296.6372070312" type="qcurve"/>
			<point x="799.7997976619" y="250.5124511719" type="line"/>
			<point x="836.8330007869" y="216.9418945312" type="line"/>
			<point x="760.68578399" y="127.9201660156"/>
			<point x="520.7954031306" y="-31.6206054688"/>
			<point x="331.4183889705" y="-30.4875488281" type="qcurve" smooth="yes"/>
			<point x="145.0464407283" y="-31.9507446289"/>
			<point x="-41.1945260686" y="280.9007568359"/>
		</contour>
	</outline>
	<anchor name="bottom" x="339" y="0"/>
	<anchor name="ogonek" x="495" y="0"/>
	<anchor name="top" x="601" y="1000"/>
</glyph>
<glyph name="f" format="2">
	<unicode hex="0066"/>
	<advance width="517"/>
	<outline>
		<contour>
			<point x="-434.854675293" y="-418.0728759766" type="line" smooth="yes"/>
			<point x="-406.5435180664" y="-312.9348144531" type="line"/>
			<point x="-266.1770629883" y="-314.4112548828" type="line" smooth="yes"/>
			<point x="-110.1553344727" y="-315.8876953125"/>
			<point x="1.7409057617" y="-211.2359619141"/>
			<point x="45.1576538086" y="39.1270751953" type="qcurve" smooth="yes"/>
			<point x="188.1427612305" y="864.9995117188" type="line"/>
			<point x="193.2369995117" y="901.9995117188" type="line"/>
			<point x="259" y="1292.1103515625" type="line" smooth="yes"/>
			<point x="288.1544799805" y="1467.274597168"/>
			<point x="476.4685058594" y="1605.1103515625"/>
			<point x="569.0755615234" y="1605.1103515625" type="qcurve" smooth="yes"/>
			<point x="669.4350585938" y="1605.1103515625"/>
			<point x="787.1300048828" y="1526.2048339844"/>
			<point x="787.1300048828" y="1471.41015625" type="qcurve" smooth="yes"/>
			<point x="787.1300048828" y="1426.6154785156"/>
			<point x="737.2933349609" y="1355.7414550781"/>
			<point x="719.5562744141" y="1355.7414550781" type="qcurve" smooth="yes"/>
			<point x="698.5562744141" y="1355.7414550781"/>
			<point x="655.5562744141" y="1379.7414550781"/>
			<point x="637.5562744141" y="1400.7414550781" type="qcurve" smooth="yes"/>
			<point x="610.5562744141" y="1431.7414550781"/>
			<point x="559.5667724609" y="1466.3610839844"/>
			<point x="533.9542236328" y="1466.3610839844" type="qcurve" smooth="yes"/>
			<point x="484.9176025391" y="1466.3610839844"/>
			<point x="439.1273193359" y="1371.1561279297"/>
			<point x="427.0747070312" y="1299.7414550781" type="qcurve" smooth="yes"/>
			<point x="359.9313354492" y="897.9995117188" type="line"/>
			<point x="363.9313354492" y="874.9995117188" type="line"/>
			<point x="218.3264770508" y="90.9271240234" type="line" smooth="yes"/>
			<point x="159.9183959961" y="-221.2642822266"/>
			<point x="-39.2294311523" y="-467.5964355469"/>
			<point x="-229.776184082" y="-467.0728759766" type="qcurve"/>
		</contour>
		<contour>
			<point x="51.4435424805" y="841.2653808594" type="line"/>
			<point x="46.2369995117" y="938.9995117188" type="line"/>
			<point x="245.2369995117" y="980.9995117188" type="line"/>
			<point x="578.2454223633" y="962.9995117188" type="line"/>
			<point x="541.1182250977" y="847.2653808594" type="line"/>
			<point x="302.1051635742" y="842.2653808594" type="line"/>
			<point x="268.4108276367" y="824.2653808594" type="line"/>
		</contour>
	</outline>
	<anchor name="bottom" x="217" y="0"/>
	<anchor name="top" x="554" y="1536"/>
</glyph>
<glyph name="g" format="2">
	<unicode hex="0067"/>
	<advance width="952"/>
	<outline>
		<contour>
			<point x="-59.3994140625" y="296.6666259766" type="qcurve" smooth="yes"/>
			<point x="-71.6235351562" y="545.2294921875"/>
			<point x="395.1657714844" y="1000.4279785156"/>
			<point x="619.6943359375" y="1000.4279785156" type="qcurve" smooth="yes"/>
			<point x="663.7524414062" y="1000.4279785156"/>
			<point x="760.6026000977" y="970.4279785156"/>
			<point x="781.6607055664" y="951.4279785156" type="qcurve"/>
			<point x="859.5593261719" y="1053.4279785156" type="line"/>
			<point x="917.5593261719" y="1053.4279785156" type="line"/>
			<point x="915.7974243164" y="820.4279785156" type="line"/>
			<point x="812.0832519531" y="432" type="line" smooth="yes"/>
			<point x="781.6070556641" y="292.7619018555"/>
			<point x="763.8502807617" y="207.5894165039"/>
			<point x="708.3461303711" y="11.5894165039" type="qcurve" smooth="yes"/>
			<point x="609.4545288086" y="-277.8480834961"/>
			<point x="314.3834838867" y="-442.4105834961"/>
			<point x="163.0665893555" y="-442.4105834961" type="qcurve"/>
			<point x="-33.3555297852" y="-373.4105834961" type="line"/>
			<point x="2.7041625977" y="-284.553527832" type="line"/>
			<point x="124.5298461914" y="-291.553527832" type="line" smooth="yes"/>
			<point x="340.2034301758" y="-300.0830688477"/>
			<point x="516.1770629883" y="-128.6731567383"/>
			<point x="566.2426147461" y="49.5894165039" type="qcurve" smooth="yes"/>
			<point x="596.5170898438" y="157.1411132812" type="line"/>
			<point x="487.8631591797" y="67.6311035156"/>
			<point x="295.8267822266" y="-10"/>
			<point x="209.1506347656" y="-10" type="qcurve" smooth="yes"/>
			<point x="85.6395874023" y="-10"/>
			<point x="-52.2915039062" y="147.8110351562"/>
		</contour>
		<contour>
			<point x="126.798828125" y="319.9210205078" type="qcurve" smooth="yes"/>
			<point x="125.8569335938" y="218.4301757812"/>
			<point x="201.9208984375" y="113.9873046875"/>
			<point x="286.7102050781" y="113.9873046875" type="qcurve" smooth="yes"/>
			<point x="390.9187011719" y="113.9873046875"/>
			<point x="622.3051147461" y="284.4936523438"/>
			<point x="661.7416992188" y="461.0478515625" type="qcurve" smooth="yes"/>
			<point x="731.7883911133" y="774.3928222656" type="line"/>
			<point x="729.7717895508" y="816.3928222656"/>
			<point x="668.8645629883" y="873.3928222656"/>
			<point x="603.4853515625" y="873.3928222656" type="qcurve" smooth="yes"/>
			<point x="374.8950805664" y="873.3928222656"/>
			<point x="122.1203613281" y="513.4588623047"/>
		</contour>
	</outline>
	<anchor name="bottom" x="324" y="-416"/>
	<anchor name="top" x="603" y="1000"/>
</glyph>
<glyph name="h" format="2">
	<unicode hex="0068"/>
	<advance width="1046"/>
	<outline>
		<contour>
			<point x="-5" y="-11" type="line"/>
			<point x="-34" y="38" type="line"/>
			<point x="109" y="584" type="line"/>
			<point x="292.9057617188" y="1425.0048828125" type="line"/>
			<point x="145.278503418" y="1479.1864013672" type="line"/>
			<point x="166.8179321289" y="1542.1834716797" type="line"/>
			<point x="411.1015625" y="1602.001953125" type="line"/>
			<point x="493.1486816406" y="1545.001953125" type="line"/>
			<point x="290.236328125" y="650" type="line"/>
			<point x="167.236328125" y="147" type="line"/>
			<point x="205.236328125" y="47" type="line"/>
		</contour>
		<contour>
			<point x="637.4769287109" y="-17" type="line"/>
			<point x="597.4769287109" y="66" type="line"/>
			<point x="769.26953125" y="752.9946289062" type="line" smooth="yes"/>
			<point x="782.1901855469" y="806.8359375"/>
			<point x="714.6151123047" y="865.9946289062"/>
			<point x="644.2486572266" y="865.9946289062" type="qcurve" smooth="yes"/>
			<point x="552.8732910156" y="865.9946289062"/>
			<point x="338.8770751953" y="707.7454833984"/>
			<point x="256.4327392578" y="627.7236328125" type="qcurve"/>
			<point x="232.7615966797" y="738.162109375" type="line"/>
			<point x="326.2806396484" y="837.1414794922"/>
			<point x="591.7015380859" y="1020.9995117188"/>
			<point x="724.943359375" y="1020.9995117188" type="qcurve" smooth="yes"/>
			<point x="841.5883789062" y="1020.9995117188"/>
			<point x="972.3610839844" y="815.5643920898"/>
			<point x="937.6179199219" y="687.9995117188" type="qcurve" smooth="yes"/>
			<point x="788.97265625" y="137.9970703125" type="line"/>
			<point x="951.4367675781" y="139.4066772461" type="line"/>
			<point x="954.8973388672" y="44.4096069336" type="line"/>
		</contour>
	</outline>
	<anchor name="bottom" x="420" y="0"/>
	<anchor name="center" x="347" y="1202"/>
	<anchor name="top" x="424" y="1534"/>
</glyph>
<glyph name="k" format="2">
	<unicode hex="006B"/>
	<advance width="903"/>
	<outline>
		<contour>
			<point x="452.235534668" y="436.6854858398" type="line"/>
			<point x="151.3471679688" y="209.7409667969" type="line"/>
			<point x="113.7575073242" y="291.9478149414" type="line"/>
			<point x="681.2647705078" y="725.7279052734" type="line"/>
			<point x="668.0908813477" y="784.9665527344"/>
			<point x="626.8369750977" y="852.74609375"/>
			<point x="570.9819335938" y="852.74609375" type="qcurve" smooth="yes"/>
			<point x="490.0559692383" y="852.74609375"/>
			<point x="308.0974731445" y="608.7116088867"/>
			<point x="259.3148803711" y="538.662109375" type="qcurve"/>
			<point x="235.1721191406" y="483.6625976562" type="line"/>
			<point x="153.236328125" y="127" type="line"/>
			<point x="187.236328125" y="40" type="line"/>
			<point x="-2" y="-10" type="line"/>
			<point x="-34" y="37" type="line"/>
			<point x="109" y="587" type="line"/>
			<point x="291.9057617188" y="1425.1669921875" type="line"/>
			<point x="97.6419067383" y="1477.0756835938" type="line"/>
			<point x="121.1813354492" y="1542.0727539062" type="line"/>
			<point x="390.1015625" y="1602.1640625" type="line"/>
			<point x="465.1015625" y="1534.1640625" type="line"/>
			<point x="282.6254882812" y="690.0555419922" type="line"/>
			<point x="340.572265625" y="809.4760131836"/>
			<point x="547.3828735352" y="1028.9995117188"/>
			<point x="635.6459960938" y="1028.9995117188" type="qcurve" smooth="yes"/>
			<point x="721.7186889648" y="1028.9995117188"/>
			<point x="817.2513427734" y="894.1818237305"/>
			<point x="828.9637451172" y="826.3538208008" type="qcurve" smooth="yes"/>
			<point x="830.3103637695" y="726.9330444336" type="line"/>
			<point x="799.1516723633" y="675.3776245117" type="line"/>
			<point x="501.4984130859" y="457.2296142578" type="line"/>
		</contour>
		<contour>
			<point x="533.0431518555" y="556.7504882812" type="line"/>
			<point x="724.6868896484" y="147.6057739258" type="line"/>
			<point x="856.6596679688" y="151.9244384766" type="line"/>
			<point x="861.6596679688" y="63.9273681641" type="line"/>
			<point x="695.5609130859" y="-6.8923339844" type="line" smooth="yes"/>
			<point x="648.6892089844" y="-26.4752197266"/>
			<point x="611.7265625" y="12.3413085938"/>
			<point x="576.0868530273" y="50.7619018555" type="qcurve" smooth="yes"/>
			<point x="420.1793823242" y="478.7070922852" type="line"/>
		</contour>
	</outline>
	<anchor name="bottom" x="448" y="0"/>
	<anchor name="top" x="578" y="1534"/>
</glyph>
<glyph name="l" format="2">
	<unicode hex="006C"/>
	<advance width="424"/>
	<outline>
		<contour>
			<point x="11" y="-22" type="line"/>
			<point x="-30" y="15" type="line"/>
			<point x="108" y="587" type="line"/>
			<point x="292.0457763672" y="1426.1669921875" type="line"/>
			<point x="104.278137207" y="1480.1211547852" type="line"/>
			<point x="127.817565918" y="1542.1182250977" type="line"/>
			<point x="396.2397460938" y="1602.1640625" type="line"/>
			<point x="468.2397460938" y="1536.1640625" type="line"/>
			<point x="256.3745117188" y="568" type="line"/>
			<point x="161.1939697266" y="147.9970703125" type="line"/>
			<point x="355.8262939453" y="150.9064941406" type="line"/>
			<point x="359.2868652344" y="56.1371459961" type="line"/>
		</contour>
	</outline>
	<anchor name="bottom" x="201" y="0"/>
	<anchor name="center" x="236" y="770"/>
	<anchor name="top" x="436" y="1534"/>
	<anchor name="topright" x="492" y="1000"/>
	<anchor name="centerright" x="707" y="742"/>
	<anchor name="liga" x="567" y="0"/>
</glyph>
<glyph name="m" format="2">
	<unicode hex="006D"/>
	<advance width="1676"/>
	<outline>
		<contour>
			<point x="29" y="-11" type="line"/>
			<point x="4" y="38" type="line"/>
			<point x="147.4761962891" y="584.2380981445" type="line"/>
			<point x="203.0432739258" y="856.0024414062" type="line"/>
			<point x="58.055480957" y="853.4560546875" type="line"/>
			<point x="69.594909668" y="975.453125" type="line"/>
			<point x="285.8668823242" y="1009.9995117188" type="line"/>
			<point x="321.8668823242" y="1009.9995117188" type="line"/>
			<point x="334.825012207" y="695.6906738281" type="line"/>
			<point x="332.2003173828" y="639.2380981445" type="line"/>
			<point x="196.7241210938" y="143" type="line"/>
			<point x="239.7241210938" y="43" type="line"/>
		</contour>
		<contour>
			<point x="679.6348876953" y="-12" type="line"/>
			<point x="629.6348876953" y="50" type="line"/>
			<point x="796.6655883789" y="752.9946289062" type="line" smooth="yes"/>
			<point x="807.5713500977" y="795.6027832031"/>
			<point x="744.6289672852" y="870.9946289062"/>
			<point x="671.1211547852" y="870.9946289062" type="qcurve" smooth="yes"/>
			<point x="578.2835083008" y="870.9946289062"/>
			<point x="365.8490600586" y="696.4396972656"/>
			<point x="320.5570678711" y="619.36328125" type="qcurve"/>
			<point x="305.3790893555" y="712.0239257812" type="line"/>
			<point x="356.4572143555" y="798.5687255859"/>
			<point x="604.5745239258" y="1020.9995117188"/>
			<point x="710.4424438477" y="1020.9995117188" type="qcurve" smooth="yes"/>
			<point x="865.8005981445" y="1020.9995117188"/>
			<point x="983.0648803711" y="777.7174072266"/>
			<point x="936.3391723633" y="613.9995117188" type="qcurve" smooth="yes"/>
			<point x="828.1964111328" y="204" type="line"/>
			<point x="905.1964111328" y="46" type="line"/>
		</contour>
		<contour>
			<point x="1270.9187011719" y="-6" type="line"/>
			<point x="1239.9187011719" y="77" type="line"/>
			<point x="1403.9494018555" y="752.9946289062" type="line" smooth="yes"/>
			<point x="1414.8551635742" y="796.6027832031"/>
			<point x="1352.436340332" y="870.9946289062"/>
			<point x="1278.928527832" y="870.9946289062" type="qcurve" smooth="yes"/>
			<point x="1187.6615600586" y="870.9946289062"/>
			<point x="980.4627075195" y="694.8690185547"/>
			<point x="932.2461547852" y="619.4174804688" type="qcurve"/>
			<point x="916.742980957" y="712.4575195312" type="line"/>
			<point x="970.889465332" y="804.4560546875"/>
			<point x="1230.9494018555" y="1020.9995117188"/>
			<point x="1330.3068237305" y="1020.9995117188" type="qcurve" smooth="yes"/>
			<point x="1469.346862793" y="1020.9995117188"/>
			<point x="1599.9907836914" y="814.948059082"/>
			<point x="1563.4061889648" y="687.9995117188" type="qcurve" smooth="yes"/>
			<point x="1414.5228271484" y="137.9970703125" type="line"/>
			<point x="1581.9869384766" y="139.6340332031" type="line"/>
			<point x="1585.4475097656" y="44.6369628906" type="line"/>
		</contour>
	</outline>
	<anchor name="bottom" x="958" y="0"/>
	<anchor name="top" x="958" y="1000"/>
	<anchor name="cy_descender" x="1572" y="134"/>
</glyph>
<glyph name="n" format="2">
	<unicode hex="006E"/>
	<advance width="1066"/>
	<outline>
		<contour>
			<point x="34.4169921875" y="-22.5551757812" type="line"/>
			<point x="-2.2568359375" y="23.1928710938" type="line"/>
			<point x="143" y="584" type="line"/>
			<point x="194.1124267578" y="857.4116210938" type="line"/>
			<point x="53.5645751953" y="854.865234375" type="line"/>
			<point x="64.8659057617" y="976.8623046875" type="line"/>
			<point x="292.7907104492" y="1004.7639160156" type="line"/>
			<point x="317.6798706055" y="1004.7639160156" type="line"/>
			<point x="333.491027832" y="699.4477539062" type="line"/>
			<point x="327.537109375" y="639" type="line"/>
			<point x="189.7924804688" y="132.1928710938" type="line"/>
			<point x="244.328125" y="35.9868164062" type="line"/>
		</contour>
		<contour>
			<point x="684.7473144531" y="-17" type="line"/>
			<point x="639.5797119141" y="64.3740234375" type="line"/>
			<point x="801.055847168" y="728.3342285156" type="line" smooth="yes"/>
			<point x="814.9945678711" y="789.5914306641"/>
			<point x="754.6314086914" y="875.2242431641"/>
			<point x="680.3648071289" y="875.2242431641" type="qcurve" smooth="yes"/>
			<point x="588.0507202148" y="875.2242431641"/>
			<point x="370.0779418945" y="663.4760742188"/>
			<point x="290.365234375" y="540.3968505859" type="qcurve"/>
			<point x="267.7021484375" y="656.0687255859" type="line"/>
			<point x="364.2409057617" y="822.4816894531"/>
			<point x="653.0170288086" y="1032.9991455078"/>
			<point x="775.6210327148" y="1032.9991455078" type="qcurve" smooth="yes"/>
			<point x="896.6117553711" y="1032.9991455078"/>
			<point x="1005.6786499023" y="862.1919555664"/>
			<point x="974.0326538086" y="737.7550048828" type="qcurve" smooth="yes"/>
			<point x="819.8974609375" y="129.9970703125" type="line"/>
			<point x="987.0815429688" y="131.4066772461" type="line"/>
			<point x="990.5421142578" y="44.4096069336" type="line"/>
		</contour>
	</outline>
	<anchor name="bottom" x="522" y="0"/>
	<anchor name="top" x="602" y="1000"/>
	<anchor name="liga" x="1173" y="0"/>
</glyph>
<glyph name="o" format="2">
	<unicode hex="006F"/>
	<advance width="1006"/>
	<outline>
		<contour>
			<point x="14.9359012591" y="551.7252807617" type="qcurve" smooth="yes"/>
			<point x="68.6693607317" y="761.7310791016"/>
			<point x="381.0432620989" y="1050.8706665039"/>
			<point x="600.7151370989" y="1034.6424560547" type="qcurve" smooth="yes"/>
			<point x="812.2526126848" y="1019.4505004883"/>
			<point x="1017.119067763" y="705.4022216797"/>
			<point x="951.5406986223" y="454.5568847656" type="qcurve" smooth="yes"/>
			<point x="894.8614383684" y="235.7416381836"/>
			<point x="567.6602664934" y="-57.0257568359"/>
			<point x="353.4992557512" y="-41.1719970703" type="qcurve" smooth="yes"/>
			<point x="147.3746219622" y="-26.4219360352"/>
			<point x="-47.5340694441" y="290.9385375977"/>
		</contour>
		<contour>
			<point x="204.6761356341" y="532.5675048828" type="qcurve" smooth="yes"/>
			<point x="157.5463974345" y="353.2597862293"/>
			<point x="236.1381717669" y="92.4545898438"/>
			<point x="366.9223514544" y="81.4500732422" type="qcurve" smooth="yes"/>
			<point x="508.2221051628" y="71.9358016363"/>
			<point x="718.7531620012" y="285.8282470703"/>
			<point x="765.4816165911" y="474.4759521484" type="qcurve" smooth="yes"/>
			<point x="810.8346439348" y="648.1822509766"/>
			<point x="711.3864549636" y="889.0773753614"/>
			<point x="580.403064345" y="900.9571533203" type="qcurve" smooth="yes"/>
			<point x="439.8849979387" y="915.3765869141"/>
			<point x="248.9399329245" y="711.5792968306"/>
		</contour>
	</outline>
	<anchor name="bottom" x="358" y="0"/>
	<anchor name="center" x="461" y="500"/>
	<anchor name="ogonek" x="514" y="0"/>
	<anchor name="top" x="584" y="1000"/>
	<anchor name="topright" x="663" y="1000"/>
	<anchor name="GRKtop" x="584" y="1000"/>
	<anchor name="yu_dash" x="83" y="498"/>
</glyph>
<glyph name="p" format="2">
	<unicode hex="0070"/>
	<advance width="1011"/>
	<outline>
		<contour>
			<point x="-106.599609375" y="-392.135559082" type="line"/>
			<point x="104" y="487" type="line"/>
			<point x="165.380859375" y="755.7138061523" type="line"/>
			<point x="139.380859375" y="949.7138061523" type="line"/>
			<point x="231.18359375" y="1020.7138061523" type="line"/>
			<point x="292.18359375" y="1020.7138061523" type="line"/>
			<point x="322.7126464844" y="770.0446166992" type="line"/>
			<point x="409.1970214844" y="869.6390991211"/>
			<point x="637.6923828125" y="1021.7138061523"/>
			<point x="764.6796875" y="1021.7138061523" type="qcurve" smooth="yes"/>
			<point x="863.2599487305" y="1021.7138061523"/>
			<point x="999.725402832" y="897.7532348633"/>
			<point x="1003.8084106445" y="786.3806762695" type="qcurve" smooth="yes"/>
			<point x="1011.5200805664" y="434.6188964844"/>
			<point x="511.765625" y="-6"/>
			<point x="282.0268554688" y="-6" type="qcurve" smooth="yes"/>
			<point x="226.9604492188" y="-6"/>
			<point x="178.8442382812" y="3"/>
			<point x="150.802734375" y="13" type="qcurve"/>
			<point x="77.6075439453" y="-354.1384887695" type="line"/>
			<point x="227.6970825195" y="-382.956237793" type="line"/>
			<point x="219.1576538086" y="-461.9533081055" type="line"/>
			<point x="11.1253662109" y="-492.135559082" type="line"/>
		</contour>
		<contour>
			<point x="208.1364746094" y="219.6687011719" type="line"/>
			<point x="194.5810546875" y="159.2883300781"/>
			<point x="241.3259277344" y="102.7807617188"/>
			<point x="293.5002441406" y="102.7807617188" type="qcurve" smooth="yes"/>
			<point x="488.0786743164" y="102.7807617188"/>
			<point x="817.4058227539" y="466.0634155273"/>
			<point x="809.813293457" y="705.3467407227" type="qcurve" smooth="yes"/>
			<point x="809.823059082" y="774.3935546875"/>
			<point x="717.6329956055" y="835.1547241211"/>
			<point x="657.2214355469" y="835.1547241211" type="qcurve" smooth="yes"/>
			<point x="579.9475097656" y="833.1547241211"/>
			<point x="396.3234863281" y="736.1874389648"/>
			<point x="329.6118164062" y="677.727722168" type="qcurve"/>
			<point x="267.5646972656" y="469.5717773438" type="line"/>
		</contour>
	</outline>
	<anchor name="bottom" x="599" y="0"/>
	<anchor name="top" x="599" y="1000"/>
</glyph>
<glyph name="q" format="2">
	<unicode hex="0071"/>
	<advance width="1006"/>
	<outline>
		<contour>
			<point x="-37.2375488281" y="252.2380371094" type="qcurve" smooth="yes"/>
			<point x="-49.9658203125" y="555.9044799805"/>
			<point x="424.350402832" y="1012.4279785156"/>
			<point x="645.8986816406" y="1012.4279785156" type="qcurve" smooth="yes"/>
			<point x="672.9318847656" y="1012.4279785156"/>
			<point x="782.5107421875" y="985.4279785156"/>
			<point x="811.0480957031" y="957.4279785156" type="qcurve"/>
			<point x="872.0668945312" y="1038.4279785156" type="line"/>
			<point x="927.0668945312" y="1038.4279785156" type="line"/>
			<point x="930.0668945312" y="788.4279785156" type="line"/>
			<point x="880.5908203125" y="562" type="line"/>
			<point x="699.2355957031" y="-328.1384887695" type="line"/>
			<point x="846.5852661133" y="-357.956237793" type="line"/>
			<point x="840.0458374023" y="-426.9533081055" type="line"/>
			<point x="618.5257568359" y="-458.135559082" type="line"/>
			<point x="520.663269043" y="-371.135559082" type="line"/>
			<point x="638.3002929688" y="161" type="line"/>
			<point x="623.3002929688" y="168" type="line"/>
			<point x="523.0301513672" y="73.3775024414"/>
			<point x="308.2386474609" y="-19"/>
			<point x="214.529296875" y="-19" type="qcurve" smooth="yes"/>
			<point x="96.7836914062" y="-19"/>
			<point x="-29.1213378906" y="157.3420410156"/>
		</contour>
		<contour>
			<point x="145.0270996094" y="317.3022460938" type="qcurve" smooth="yes"/>
			<point x="146.5810546875" y="237.803527832"/>
			<point x="223.1096191406" y="138.9079589844"/>
			<point x="307.1206054688" y="138.9079589844" type="qcurve" smooth="yes"/>
			<point x="429.0397949219" y="138.9079589844"/>
			<point x="664.3337402344" y="319.096862793"/>
			<point x="703.1416015625" y="511.2065429688" type="qcurve" smooth="yes"/>
			<point x="769.9502563477" y="796.3928222656" type="line"/>
			<point x="765.9170532227" y="836.9052734375"/>
			<point x="692.9174804688" y="869.3928222656"/>
			<point x="637.2722167969" y="869.3928222656" type="qcurve" smooth="yes"/>
			<point x="424.4158935547" y="869.3928222656"/>
			<point x="137.8693847656" y="524.364440918"/>
		</contour>
	</outline>
	<anchor name="bottom" x="594" y="0"/>
	<anchor name="top" x="594" y="1000"/>
</glyph>
<glyph name="r" format="2">
	<unicode hex="0072"/>
	<advance width="767"/>
	<outline>
		<contour>
			<point x="105.6177978516" y="-33.2355957031" type="line"/>
			<point x="18" y="37.2355957031" type="line"/>
			<point x="139.1884765625" y="524" type="line"/>
			<point x="203.0212402344" y="846.7693481445" type="line"/>
			<point x="15.6840209961" y="847.2312011719" type="line"/>
			<point x="30.223449707" y="968.2282714844" type="line"/>
			<point x="247.4085693359" y="999.766418457" type="line"/>
			<point x="290.4085693359" y="999.766418457" type="line"/>
			<point x="345.0263671875" y="981.2376098633" type="line"/>
			<point x="327.2200927734" y="605.6826782227" type="line"/>
			<point x="209.8956298828" y="135.2797851562" type="line"/>
			<point x="375.1926879883" y="103.0142211914" type="line"/>
			<point x="380.5132446289" y="21.7815551758" type="line"/>
		</contour>
		<contour>
			<point x="604.7887422721" y="642.0650024414" type="line"/>
			<point x="599.4714568954" y="806.7451642624" type="line"/>
			<point x="504.387716661" y="806.7451642624"/>
			<point x="357.8923093499" y="701.735240442"/>
			<point x="296.944677514" y="616.4519513718" type="qcurve"/>
			<point x="284.0263671875" y="691.2376098633" type="line"/>
			<point x="361.3509521484" y="828.1904907227"/>
			<point x="579.2409667969" y="1012.766418457"/>
			<point x="674.0524902344" y="1012.766418457" type="qcurve" smooth="yes"/>
			<point x="739.5289306641" y="1012.766418457"/>
			<point x="805.9111328125" y="943.4732055664"/>
			<point x="805.9111328125" y="864.4732055664" type="qcurve" smooth="yes"/>
			<point x="805.9111328125" y="769.4732055664"/>
			<point x="700.3875732422" y="642.0650024414"/>
			<point x="640.0053710938" y="642.0650024414" type="qcurve" smooth="yes"/>
		</contour>
	</outline>
	<anchor name="bottom" x="282" y="0"/>
	<anchor name="top" x="486" y="1000"/>
</glyph>
<glyph name="s" format="2">
	<unicode hex="0073"/>
	<advance width="762"/>
	<outline>
		<contour>
			<point x="-29" y="203" type="qcurve" smooth="yes"/>
			<point x="-27" y="288"/>
			<point x="53.1101074219" y="384"/>
			<point x="106.7182617188" y="384" type="qcurve" smooth="yes"/>
			<point x="130.7182617188" y="356" type="line"/>
			<point x="124.7182617188" y="181.478515625" type="line" smooth="yes"/>
			<point x="123.7182617188" y="136.5578613281"/>
			<point x="190.3199462891" y="73.1605224609"/>
			<point x="282.4631347656" y="73.1605224609" type="qcurve" smooth="yes"/>
			<point x="386.63671875" y="73.1605224609"/>
			<point x="524.0100097656" y="159.9252929688"/>
			<point x="527.0100097656" y="224.7739868164" type="qcurve" smooth="yes"/>
			<point x="530.0100097656" y="288.0844116211"/>
			<point x="434.4561157227" y="347.2303466797"/>
			<point x="316.6328125" y="437.5953979492" type="qcurve" smooth="yes"/>
			<point x="194.8439941406" y="529.0186157227"/>
			<point x="91.2637329102" y="658.2291259766"/>
			<point x="93.3179321289" y="767.3243408203" type="qcurve" smooth="yes"/>
			<point x="97.3721313477" y="886.1424560547"/>
			<point x="299.5264282227" y="1044.2849121094"/>
			<point x="461.4303588867" y="1044.2849121094" type="qcurve" smooth="yes"/>
			<point x="586.9873657227" y="1044.2849121094"/>
			<point x="733.7733154297" y="923.9995117188"/>
			<point x="731.7733154297" y="837.9995117188" type="qcurve" smooth="yes"/>
			<point x="729.7733154297" y="765.7614135742"/>
			<point x="658.5618896484" y="661.9995117188"/>
			<point x="628.6268310547" y="650.9995117188" type="qcurve" smooth="yes"/>
			<point x="579.6268310547" y="690.9995117188" type="line"/>
			<point x="583.6268310547" y="803.966796875" type="line" smooth="yes"/>
			<point x="585.6268310547" y="844.8494873047"/>
			<point x="500.4688720703" y="925.39453125"/>
			<point x="429.0419311523" y="925.39453125" type="qcurve" smooth="yes"/>
			<point x="356.1578979492" y="925.39453125"/>
			<point x="252.3833618164" y="848.9547119141"/>
			<point x="250.3833618164" y="802.0194091797" type="qcurve" smooth="yes"/>
			<point x="248.3833618164" y="752.5456542969"/>
			<point x="336.0747070312" y="661.0100097656"/>
			<point x="438.419921875" y="586.7914428711" type="qcurve" smooth="yes"/>
			<point x="548.3450927734" y="506.6417236328"/>
			<point x="682.7556152344" y="381.4587402344"/>
			<point x="682.7556152344" y="272.5540161133" type="qcurve"/>
			<point x="681.3875732422" y="133.9043579102"/>
			<point x="460.3697509766" y="-43.5711669922"/>
			<point x="280.4970703125" y="-43.5711669922" type="qcurve" smooth="yes"/>
			<point x="129.3179931641" y="-43.5711669922"/>
			<point x="-33" y="115"/>
		</contour>
	</outline>
	<anchor name="bottom" x="282" y="0"/>
	<anchor name="top" x="446" y="1000"/>
</glyph>
<glyph name="u" format="2">
	<unicode hex="0075"/>
	<advance width="1064"/>
	<outline>
		<contour>
			<point x="765.8861083984" y="-21" type="line"/>
			<point x="695.8861083984" y="68" type="line"/>
			<point x="692.880859375" y="285.2093505859" type="line"/>
			<point x="845.2669677734" y="911.2376098633" type="line"/>
			<point x="803.2669677734" y="999.2376098633" type="line"/>
			<point x="985.0452880859" y="1028.2376098633" type="line"/>
			<point x="1023.0452880859" y="944.2376098633" type="line"/>
			<point x="860.6644287109" y="296" type="line"/>
			<point x="858.4440917969" y="135.9970703125" type="line"/>
			<point x="996.6281738281" y="137.4976196289" type="line"/>
			<point x="1002.8485107422" y="44.5005493164" type="line"/>
		</contour>
		<contour>
			<point x="64" y="276" type="qcurve" smooth="yes"/>
			<point x="195.1214599609" y="855.2405395508" type="line"/>
			<point x="36.6645507812" y="849.694152832" type="line"/>
			<point x="32.9239501953" y="963.6912231445" type="line"/>
			<point x="254.0263671875" y="1008.2376098633" type="line"/>
			<point x="323.0263671875" y="1008.2376098633" type="line"/>
			<point x="365.0263671875" y="924.2376098633" type="line"/>
			<point x="235.0270996094" y="310.3525390625" type="line" smooth="yes"/>
			<point x="215.9477539062" y="221.3525390625"/>
			<point x="257.8125" y="128.3991699219"/>
			<point x="352.6606445312" y="128.3991699219" type="qcurve" smooth="yes"/>
			<point x="466.5925292969" y="128.3991699219"/>
			<point x="691.4929199219" y="297.4619140625"/>
			<point x="742.0583496094" y="359.0535888672" type="qcurve"/>
			<point x="764.7561035156" y="266.7706298828" type="line"/>
			<point x="708.9254150391" y="166.8677978516"/>
			<point x="422.5550537109" y="-19"/>
			<point x="283.9439697266" y="-19" type="qcurve" smooth="yes"/>
			<point x="161.5885009766" y="-19"/>
			<point x="30.9458007812" y="132"/>
		</contour>
	</outline>
	<anchor name="bottom" x="404" y="0"/>
	<anchor name="ogonek" x="871" y="20"/>
	<anchor name="top" x="572" y="1000"/>
	<anchor name="topright" x="915" y="1000"/>
	<anchor name="cy_descender" x="1018" y="134"/>
</glyph>
<glyph name="v" format="2">
	<unicode hex="0076"/>
	<advance width="868"/>
	<outline>
		<contour>
			<point x="261.140625" y="-37.5712890625" type="line"/>
			<point x="181.3277587891" y="501.5139770508" type="line"/>
			<point x="125.8824462891" y="848.2405395508" type="line"/>
			<point x="4.0352172852" y="842.8760375977" type="line"/>
			<point x="6.335144043" y="955.8731079102" type="line"/>
			<point x="165.9266357422" y="1008.2376098633" type="line"/>
			<point x="259.4157714844" y="1008.2376098633" type="line"/>
			<point x="326.5349121094" y="558.0172729492" type="line"/>
			<point x="358.2026977539" y="312.1331176758" type="line"/>
			<point x="367.2055664062" y="203.3369750977" type="line"/>
			<point x="379.2055664062" y="203.3369750977" type="line"/>
			<point x="453.2123413086" y="308.3460083008" type="line"/>
			<point x="591.0812988281" y="490.6294555664"/>
			<point x="691.1248779297" y="685.4046630859"/>
			<point x="694.1248779297" y="755.0258178711" type="qcurve" smooth="yes"/>
			<point x="696.1248779297" y="844.5433959961"/>
			<point x="610.6448364258" y="915.5316772461"/>
			<point x="612.6448364258" y="964.0682983398" type="qcurve" smooth="yes"/>
			<point x="613.6448364258" y="1002.7175292969"/>
			<point x="681.5954589844" y="1066.3425292969"/>
			<point x="722.6337890625" y="1066.3425292969" type="qcurve" smooth="yes"/>
			<point x="777.887512207" y="1066.3425292969"/>
			<point x="867.329284668" y="955.9463500977"/>
			<point x="863.329284668" y="848.7938232422" type="qcurve" smooth="yes"/>
			<point x="858.329284668" y="700.227355957"/>
			<point x="615.2973022461" y="336.4245605469"/>
			<point x="320.1524047852" y="-34.5712890625" type="qcurve"/>
		</contour>
	</outline>
	<anchor name="bottom" x="513" y="0"/>
	<anchor name="top" x="513" y="1000"/>
</glyph>
<glyph name="w" format="2">
	<unicode hex="0077"/>
	<advance width="1368"/>
	<outline>
		<contour>
			<point x="248.6524047852" y="-26" type="line"/>
			<point x="160.4096069336" y="498.8402709961" type="line"/>
			<point x="102.8804931641" y="846.2405395508" type="line"/>
			<point x="-13.0698242188" y="838.0124511719" type="line"/>
			<point x="-15.5303955078" y="951.0095214844" type="line"/>
			<point x="139.0692749023" y="1007.2376098633" type="line"/>
			<point x="236.0692749023" y="1007.2376098633" type="line"/>
			<point x="300.984375" y="578.0171508789" type="line"/>
			<point x="336.9033203125" y="296.2401123047" type="line"/>
			<point x="346.8043823242" y="188.0481567383" type="line"/>
			<point x="358.8043823242" y="188.0481567383" type="line"/>
			<point x="421.6676635742" y="295.5404663086" type="line"/>
			<point x="484.3171386719" y="386.6439819336"/>
			<point x="558.1802368164" y="511.3807373047"/>
			<point x="617.8297119141" y="606.4842529297" type="qcurve"/>
			<point x="561.9534301758" y="862.3489379883" type="line"/>
			<point x="516.0258178711" y="864.6210327148" type="line"/>
			<point x="500.565246582" y="964.6181030273" type="line"/>
			<point x="644.4881591797" y="1009.2376098633" type="line"/>
			<point x="711.4339599609" y="1009.2376098633" type="line"/>
			<point x="783.4511108398" y="584.1759643555" type="line"/>
			<point x="827.5680541992" y="295.7861938477" type="line"/>
			<point x="846.069519043" y="177.6732788086" type="line"/>
			<point x="858.069519043" y="177.6732788086" type="line"/>
			<point x="942.2888793945" y="292.9662475586" type="line"/>
			<point x="1084.8179321289" y="483.5908813477"/>
			<point x="1175.7055664062" y="655.0830688477"/>
			<point x="1175.1665039062" y="730.6780395508" type="qcurve" smooth="yes"/>
			<point x="1176.0241699219" y="816.9876098633"/>
			<point x="1082.0341186523" y="905.9483032227"/>
			<point x="1083.9257202148" y="957.8391723633" type="qcurve" smooth="yes"/>
			<point x="1084.8173217773" y="1008.592590332"/>
			<point x="1142.8959350586" y="1072.2376098633"/>
			<point x="1186.8905639648" y="1072.2376098633" type="qcurve" smooth="yes"/>
			<point x="1263.8726806641" y="1035.0289306641"/>
			<point x="1334.2141113281" y="944.1292114258"/>
			<point x="1330.2141113281" y="840.0208129883" type="qcurve" smooth="yes"/>
			<point x="1326.2141113281" y="681.075012207"/>
			<point x="1103.6011962891" y="358.3181762695"/>
			<point x="794.6091308594" y="-26" type="qcurve"/>
			<point x="733.9978027344" y="-26" type="line"/>
			<point x="667.9729003906" y="370.7106323242" type="line"/>
			<point x="654.0514526367" y="490.6477050781" type="line"/>
			<point x="642.0514526367" y="490.6477050781" type="line"/>
			<point x="570.6541137695" y="370.6186523438" type="line"/>
			<point x="531.8315429688" y="318.0524291992"/>
			<point x="419.0324707031" y="142.5662231445"/>
			<point x="311.2098999023" y="-26" type="qcurve"/>
		</contour>
	</outline>
	<anchor name="bottom" x="787" y="0"/>
	<anchor name="top" x="717" y="1000"/>
</glyph>
<glyph name="x" format="2">
	<unicode hex="0078"/>
	<advance width="981"/>
	<outline>
		<contour>
			<point x="81.4511108398" y="-31.8569335938" type="qcurve"/>
			<point x="-82.7758178711" y="64.2340087891" type="line"/>
			<point x="-49.7758178711" y="150.2340087891" type="line"/>
			<point x="105.4511108398" y="155.1430664062" type="line" smooth="yes"/>
			<point x="126.83203125" y="155.5174560547"/>
			<point x="203.9892578125" y="222.7948608398"/>
			<point x="249.2004394531" y="270.4284057617" type="qcurve" smooth="yes"/>
			<point x="301.2124023438" y="330.5142211914"/>
			<point x="351.9423828125" y="388.4066162109"/>
			<point x="401.3919067383" y="454.6134033203" type="qcurve"/>
			<point x="229.2255249023" y="878.5262451172" type="line"/>
			<point x="138.0247192383" y="855.7581787109" type="line"/>
			<point x="105.1441040039" y="941.7950439453" type="line"/>
			<point x="265.757019043" y="1027.5233154297" type="line"/>
			<point x="365.757019043" y="1008.5233154297" type="line"/>
			<point x="456.0239868164" y="748.5703735352" type="line"/>
			<point x="484.6876220703" y="665.7728271484" type="line"/>
			<point x="496.6876220703" y="665.7728271484" type="line"/>
			<point x="542.8394165039" y="730.484375" type="line" smooth="yes"/>
			<point x="576.4134521484" y="774.7208862305"/>
			<point x="635.3934936523" y="849.5349121094"/>
			<point x="656.9389648438" y="869.2749023438" type="qcurve" smooth="yes"/>
			<point x="729.3836669922" y="950.1324462891"/>
			<point x="833.2808227539" y="1029.6661376953"/>
			<point x="871.110534668" y="1029.6661376953" type="qcurve" smooth="yes"/>
			<point x="915.7319946289" y="1029.6661376953"/>
			<point x="981.0554199219" y="951.3245239258"/>
			<point x="980.0554199219" y="879.3245239258" type="qcurve" smooth="yes"/>
			<point x="979.0554199219" y="817.3245239258"/>
			<point x="897.3970336914" y="724.6661376953"/>
			<point x="844.3970336914" y="724.6661376953" type="qcurve"/>
			<point x="833.3970336914" y="736.6661376953" type="line"/>
			<point x="834.3970336914" y="818.3493652344" type="line" smooth="yes"/>
			<point x="834.3970336914" y="826.3493652344"/>
			<point x="826.4512329102" y="836.6661376953"/>
			<point x="819.8256225586" y="836.6661376953" type="qcurve" smooth="yes"/>
			<point x="794.4281005859" y="836.6661376953"/>
			<point x="703.4447021484" y="768.7593383789"/>
			<point x="667.3287963867" y="733.8256225586" type="qcurve" smooth="yes"/>
			<point x="638.9271850586" y="708.1610717773"/>
			<point x="572.0454711914" y="634.2167358398"/>
			<point x="521.6501464844" y="564.6372070312" type="qcurve"/>
			<point x="692.5724487305" y="110.7115478516" type="line"/>
			<point x="800.609375" y="129.439453125" type="line"/>
			<point x="819.0699462891" y="43.4423828125" type="line"/>
			<point x="624.3209838867" y="-33.2855224609" type="line"/>
			<point x="560.3209838867" y="12.7144775391" type="line"/>
			<point x="454.891784668" y="315.9714355469" type="line"/>
			<point x="432.3565063477" y="375.8724975586" type="line"/>
			<point x="420.3565063477" y="375.8724975586" type="line"/>
			<point x="380.8803100586" y="316.7958984375" type="line"/>
			<point x="343.936340332" y="257.2536621094"/>
			<point x="306.0667114258" y="202.6818237305"/>
			<point x="266.0547485352" y="144.2365722656" type="qcurve" smooth="yes"/>
			<point x="209.2814331055" y="63.3685302734"/>
			<point x="109.9297485352" y="-31.3015136719"/>
		</contour>
	</outline>
	<anchor name="bottom" x="522" y="0"/>
	<anchor name="top" x="522" y="1000"/>
	<anchor name="cy_descender" x="832" y="134"/>
	<anchor name="center" x="432" y="502"/>
</glyph>
<glyph name="y" format="2">
	<unicode hex="0079"/>
	<advance width="927"/>
	<outline>
		<contour>
			<point x="-282.1577148438" y="-384.4105834961" type="line"/>
			<point x="-266.1577148438" y="-260.4105834961" type="line"/>
			<point x="-94.2447509766" y="-260.4105834961" type="line" smooth="yes"/>
			<point x="11.8856201172" y="-260.4105834961"/>
			<point x="211.2998657227" y="-199.4877929688"/>
			<point x="293.2152709961" y="-74" type="qcurve" smooth="yes"/>
			<point x="342.5733032227" y="0" type="line"/>
			<point x="317.4184570312" y="0" type="line"/>
			<point x="314.0146484375" y="62"/>
			<point x="181.4196777344" y="659.2405395508"/>
			<point x="130.3422851562" y="855.2405395508" type="qcurve"/>
			<point x="4.0352172852" y="842.8760375977" type="line"/>
			<point x="6.335144043" y="952.8731079102" type="line"/>
			<point x="197.8276977539" y="1013.2376098633" type="line"/>
			<point x="257.2467651367" y="1013.2376098633" type="line"/>
			<point x="284.787109375" y="881.2376098633" type="line"/>
			<point x="415.1826171875" y="294.5941162109" type="line"/>
			<point x="436.1651611328" y="148.1689453125" type="line"/>
			<point x="448.1651611328" y="148.1689453125" type="line"/>
			<point x="527.6880493164" y="291.9696044922" type="line" smooth="yes"/>
			<point x="620.7229614258" y="455.1201171875"/>
			<point x="712.4431152344" y="631.5832519531"/>
			<point x="707.8410644531" y="687.5437011719" type="qcurve" smooth="yes"/>
			<point x="705.0639648438" y="779.3605957031"/>
			<point x="605.5009155273" y="876.5703125"/>
			<point x="607.5009155273" y="940.318359375" type="qcurve" smooth="yes"/>
			<point x="608.5009155273" y="989.1801757812"/>
			<point x="676.0375366211" y="1057.9038085938"/>
			<point x="721.7069702148" y="1057.9038085938" type="qcurve" smooth="yes"/>
			<point x="780.5145874023" y="1057.9038085938"/>
			<point x="864.2371826172" y="940.93359375"/>
			<point x="864.2371826172" y="811.619140625" type="qcurve" smooth="yes"/>
			<point x="864.2371826172" y="633.9741210938"/>
			<point x="566.6887817383" y="161.1918334961"/>
			<point x="437.9539794922" y="-30" type="qcurve" smooth="yes"/>
			<point x="415.9962768555" y="-64" type="line" smooth="yes"/>
			<point x="302.0861816406" y="-242.5158691406"/>
			<point x="29.8728637695" y="-442.4105834961"/>
			<point x="-72.2447509766" y="-442.4105834961" type="qcurve"/>
		</contour>
	</outline>
	<anchor name="bottom" x="782" y="0"/>
	<anchor name="top" x="504" y="1000"/>
</glyph>
<glyph name="z" format="2">
	<unicode hex="007A"/>
	<advance width="770"/>
	<outline>
		<contour>
			<point x="-50.0581054688" y="-29.1435546875" type="line"/>
			<point x="-128" y="76" type="line"/>
			<point x="-5.7398071289" y="191.9047241211"/>
			<point x="253.3911743164" y="462.4284057617"/>
			<point x="329.2454223633" y="547.2059326172" type="qcurve" smooth="yes"/>
			<point x="393.639831543" y="619.7775268555"/>
			<point x="544.7670288086" y="754.8567504883"/>
			<point x="621.1743164062" y="817.9995117188" type="qcurve"/>
			<point x="199.4517822266" y="813.9995117188" type="line"/>
			<point x="139.6247558594" y="688.9979248047" type="line"/>
			<point x="23.1352539062" y="688.9979248047" type="line"/>
			<point x="96.9622802734" y="989.9995117188" type="line"/>
			<point x="153.9622802734" y="1009.9995117188" type="line"/>
			<point x="780.9393310547" y="1009.9995117188" type="line"/>
			<point x="801.2567138672" y="888.9995117188" type="line"/>
			<point x="716.3923339844" y="794.8567504883"/>
			<point x="481.2086181641" y="540.1267089844"/>
			<point x="423.8994750977" y="478.3331298828" type="qcurve" smooth="yes"/>
			<point x="366.4491577148" y="415.1903076172"/>
			<point x="218.9310913086" y="277.0952148438"/>
			<point x="154.8867797852" y="224" type="qcurve"/>
			<point x="557.8125610352" y="198.3404541016" type="line"/>
			<point x="654.5197143555" y="337.2752685547" type="line"/>
			<point x="742.9879150391" y="308.6156616211" type="line"/>
			<point x="639.2807617188" y="-1" type="line"/>
			<point x="607.2807617188" y="-20" type="line"/>
			<point x="34.1485595703" y="76.2065429688" type="line"/>
		</contour>
	</outline>
	<anchor name="bottom" x="443" y="0"/>
	<anchor name="top" x="463" y="1000"/>
	<anchor name="_liga" x="0" y="0"/>
</glyph>
